<svg width="561" height="513" viewBox="0 0 561 513" fill="none" xmlns="http://www.w3.org/2000/svg">
<path d="M110.987 238.155C109.239 238.53 107.482 238.869 105.716 239.172C105.885 243.498 106.019 247.824 106.153 252.149C107.297 252.448 108.512 252.281 109.533 251.686C110.71 251.031 111.783 250.204 112.717 249.233C113.694 248.268 114.62 247.253 115.491 246.191C116.338 245.166 117.185 244.122 118.015 243.052V243.043C118.139 239.653 118.273 237.317 118.425 236.282L110.987 238.155ZM109.81 252.292C109.135 252.584 108.404 252.724 107.669 252.702C107.14 252.669 106.624 252.526 106.153 252.283C106.242 255.057 106.322 257.84 106.412 260.623L106.973 283.081C107.33 298.056 107.526 313.032 107.812 328.007C107.954 342.991 108.177 357.967 108.258 372.942L108.338 395.418C108.302 402.91 108.329 410.394 108.24 417.886C109.817 417.252 111.312 416.428 112.69 415.433C114.067 414.436 115.285 413.236 116.302 411.874C116.302 411.874 116.739 276.632 118.006 243.132C116.849 245.627 115.261 247.897 113.315 249.839C112.313 250.873 111.123 251.705 109.81 252.292ZM106.947 372.969C106.59 357.993 106.385 343.009 106.108 328.034C105.966 313.058 105.734 298.083 105.662 283.099L105.582 260.631C105.618 253.478 105.591 246.334 105.671 239.181C80.7616 243.444 54.0861 240.644 39.6112 238.155L35.0359 237.308C35.0359 237.308 36.6234 401.242 44.5966 412.926C52.5611 424.62 75.4015 417.895 75.4015 417.895C75.4015 417.895 95.0493 423.282 108.24 417.886C107.937 410.402 107.749 402.919 107.5 395.427L106.947 372.969ZM74.0015 407.736C73.6803 404.329 73.4216 400.921 73.1897 397.514C72.7706 390.691 72.4762 383.868 72.2086 377.036C71.7004 363.381 71.4775 349.725 71.1831 336.07C71.0226 322.415 70.8205 308.762 70.5767 295.113C70.4428 288.29 70.3359 281.458 69.8453 274.67C69.7828 273.823 69.7027 272.976 69.5955 272.137C69.5422 271.727 69.4797 271.308 69.3994 270.906C69.3101 270.523 69.2121 270.059 69.0159 269.961C67.6246 268.935 66.3225 267.838 65.0115 266.732C62.3982 264.529 59.8565 262.246 57.3414 259.936C59.9723 262.112 62.6212 264.271 65.2967 266.384C66.6345 267.437 67.9901 268.48 69.3815 269.435C69.5078 269.517 69.6169 269.623 69.7026 269.747C69.7673 269.857 69.821 269.974 69.8631 270.095C69.9464 270.307 70.0149 270.524 70.0682 270.746C70.1753 271.183 70.2555 271.602 70.3269 272.03C70.4695 272.887 70.5767 273.743 70.6747 274.59C71.3435 281.413 71.5933 288.245 71.8877 295.068C72.405 308.733 72.5833 322.388 72.8866 336.043C73.0561 349.698 73.2671 363.351 73.5198 377C73.6268 383.832 73.7785 390.655 74.0281 397.47C74.1263 400.886 74.26 404.293 74.4474 407.7C74.5454 409.403 74.6613 411.107 74.813 412.802C74.9556 414.505 75.1164 416.2 75.4016 417.886C74.7434 414.531 74.2759 411.143 74.0015 407.736V407.736Z" fill="black"/>
<path d="M105.68 238.155C105.698 238.494 105.707 238.833 105.716 239.172C105.702 239.179 105.687 239.183 105.671 239.181C105.671 238.842 105.68 238.494 105.68 238.155Z" fill="white"/>
<path d="M118.095 242.945C118.069 243.006 118.039 243.066 118.006 243.124C118.005 243.1 118.008 243.075 118.015 243.052V243.043C118.042 243.008 118.068 242.981 118.095 242.945Z" fill="white"/>
<path d="M110.965 238.076C115.852 236.972 120.65 235.506 125.32 233.69C129.973 231.877 134.434 229.602 138.634 226.899L138.429 227.33L135.451 202.246L132.583 177.15L132.484 176.277L133.378 176.349C138.167 176.749 142.984 176.654 147.753 176.063C150.119 175.777 152.455 175.276 154.73 174.565C156.974 173.897 159.068 172.802 160.898 171.341C162.681 169.906 163.9 167.887 164.338 165.641C164.706 163.333 164.534 160.972 163.838 158.742C162.523 154.104 160.759 149.606 158.571 145.31C154.202 136.647 149.247 128.292 143.74 120.304C141.005 116.294 138.169 112.355 135.232 108.487C133.762 106.556 132.266 104.644 130.708 102.786C129.93 101.856 129.134 100.944 128.321 100.048C127.546 99.1528 126.68 98.3412 125.735 97.6266L125.821 97.6556C122.214 97.1606 118.569 96.9963 114.932 97.1648C113.115 97.2379 111.302 97.4065 109.503 97.6697C107.707 97.9355 105.929 98.3098 104.178 98.7906L104.005 98.8359L103.865 98.7276L100.131 95.8324L100.254 95.8971C90.3116 93.2277 79.9744 92.3469 69.7241 93.2958L67.8111 93.4802L65.9102 93.7609L64.0102 94.0414L62.1244 94.427C59.611 94.8892 57.1336 95.5291 54.7108 96.3421C49.854 97.8669 45.2896 100.201 41.2099 103.246C39.222 104.792 37.4805 106.631 36.0449 108.7C34.5196 110.739 33.1015 112.888 31.7188 115.053C28.9596 119.394 26.332 123.83 23.7896 128.315C21.2497 132.801 18.7732 137.324 16.3601 141.882C13.9487 146.438 11.5753 151.021 9.38746 155.668C8.82523 156.827 8.33096 157.998 7.81932 159.166L7.17002 160.903C6.98864 161.501 6.8201 162.117 6.65789 162.734C6.01164 165.209 5.44987 167.723 4.92207 170.239C3.87604 175.276 2.9931 180.351 2.35252 185.445C2.032 187.991 1.77898 190.544 1.66489 193.093C1.49033 195.603 1.62525 198.125 2.06663 200.601C2.32051 201.757 2.81107 202.96 3.57164 203.332C3.66477 203.379 3.76265 203.416 3.86364 203.443L4.31588 203.522L5.22017 203.682C5.84639 203.735 6.46735 203.81 7.0986 203.847C9.65299 203.963 12.2118 203.94 14.7637 203.778C19.891 203.486 25.0312 202.971 30.1243 202.277L31.0706 202.136C31.2272 202.111 31.3935 202.086 31.5057 202.061L31.6 202.043L31.6474 202.035C31.4234 201.994 32.3903 201.989 32.3529 202.29C32.4223 202.406 32.4584 202.539 32.4574 202.674C32.4609 202.742 32.459 202.791 32.4572 202.842C32.3962 203.51 32.301 204.175 32.1722 204.834L31.4458 208.649C30.9498 211.184 30.4551 213.716 29.995 216.254C29.5336 218.792 29.1084 221.335 28.7461 223.884C28.3497 226.423 28.117 228.984 28.0495 231.553C28.0426 232.188 28.0732 232.823 28.1414 233.455C28.1841 234.065 28.3518 234.659 28.6339 235.202C28.7795 235.44 29.0126 235.611 29.283 235.678C29.5745 235.789 29.8831 235.881 30.1888 235.973C30.8037 236.154 31.4273 236.316 32.052 236.471C34.5538 237.089 37.0859 237.601 39.6232 238.075L39.5942 238.244C37.043 237.832 34.497 237.384 31.9686 236.825C31.3367 236.684 30.7059 236.538 30.0773 236.37C29.7629 236.283 29.4498 236.198 29.1343 236.088C28.7722 235.992 28.4577 235.767 28.2503 235.456C27.9123 234.861 27.7034 234.202 27.6373 233.521C27.5505 232.87 27.5022 232.215 27.493 231.558C27.623 226.371 28.1665 221.203 29.1182 216.103C29.536 213.55 29.9882 211.004 30.4405 208.461L31.0983 204.652C31.1941 204.03 31.3075 203.361 31.3354 202.807L31.3345 202.733C31.3493 202.734 31.2932 202.667 31.394 202.881C31.3387 203.14 32.2571 203.136 31.9954 203.108L31.9242 203.125L31.7817 203.158C31.5792 203.206 31.4264 203.229 31.2644 203.258L30.2979 203.42C25.1694 204.221 20.0178 204.795 14.843 205.143C12.2403 205.335 9.62906 205.386 7.02091 205.294C6.36312 205.262 5.69966 205.191 5.03882 205.14L4.03374 204.974L3.53119 204.89C3.31889 204.839 3.11278 204.765 2.91651 204.669C2.19993 204.287 1.62693 203.682 1.28369 202.946C0.968035 202.312 0.73076 201.642 0.57712 200.951C0.0751331 198.343 -0.100416 195.683 0.0545408 193.032C0.144247 190.418 0.374425 187.824 0.671859 185.241C1.2861 180.079 2.18075 174.968 3.21874 169.886C3.74566 167.346 4.30483 164.815 4.95783 162.29C5.12266 161.658 5.29292 161.028 5.48518 160.389L6.18588 158.495C6.70715 157.296 7.21556 156.086 7.77841 154.919C12.2142 145.532 17.1319 136.435 22.2829 127.453C24.862 122.966 27.5272 118.525 30.3362 114.163C31.7459 111.985 33.1877 109.825 34.7681 107.738C36.2999 105.568 38.1494 103.641 40.2545 102.021C44.4964 98.9045 49.2427 96.5413 54.2859 95.0346C56.7728 94.2357 59.3132 93.6137 61.888 93.1733L63.8026 92.8077L65.7387 92.5466L67.6742 92.2864L69.6195 92.1233C80.0071 91.2895 90.4601 92.3182 100.486 95.1609L100.55 95.1794L100.608 95.2258L104.303 98.1712L103.99 98.1082C105.775 97.6455 107.585 97.2886 109.412 97.0395C111.234 96.7823 113.068 96.6208 114.907 96.5559C118.584 96.4039 122.268 96.5888 125.911 97.1085L125.966 97.1164L125.997 97.1375C126.996 97.883 127.908 98.7379 128.717 99.6863C129.532 100.595 130.328 101.517 131.106 102.454C132.661 104.327 134.189 106.221 135.671 108.15C138.642 112.002 141.511 115.931 144.276 119.935C149.898 127.893 154.999 136.205 159.548 144.821C161.845 149.156 163.713 153.705 165.125 158.403C165.921 160.82 166.13 163.393 165.732 165.907C165.243 168.478 163.865 170.795 161.84 172.453C159.874 174.047 157.618 175.247 155.197 175.985C152.836 176.738 150.41 177.273 147.951 177.583C143.065 178.169 138.13 178.238 133.229 177.791L134.023 176.99L136.731 202.104L139.329 227.23L139.358 227.513L139.123 227.661C134.839 230.332 130.278 232.532 125.521 234.223C120.788 235.922 115.934 237.265 111.001 238.243L110.965 238.076Z" fill="black"/>
<path d="M105.678 151.303C107.489 153.921 109.443 156.437 111.531 158.84C113.608 161.241 115.807 163.534 118.12 165.708C120.433 167.864 122.888 169.861 125.469 171.688C128.046 173.474 130.785 175.014 133.65 176.288L132.949 177.846C130.049 176.4 127.292 174.685 124.714 172.723C122.177 170.752 119.775 168.613 117.524 166.32C115.294 164.028 113.184 161.622 111.202 159.111C109.218 156.612 107.374 154.005 105.678 151.303V151.303Z" fill="black"/>
<path d="M28.6553 143.601C30.3311 148.297 31.6369 153.118 32.5606 158.019C33.506 162.922 34.145 167.88 34.4737 172.863C34.534 174.111 34.6318 175.357 34.6566 176.606L34.713 180.354C34.7335 181.603 34.6412 182.852 34.6105 184.101C34.5717 185.349 34.5297 186.597 34.3864 187.841C34.0024 192.818 33.1507 197.749 31.8425 202.566C31.9706 201.325 32.1145 200.091 32.2743 198.863L32.5023 197.02L32.6268 195.165L32.9156 191.469L33.056 187.766C33.1758 182.834 33.1409 177.896 32.7705 172.974C32.4635 168.05 31.9362 163.137 31.2516 158.239C30.8834 155.795 30.5172 153.347 30.0767 150.909C29.6815 148.46 29.1689 146.036 28.6553 143.601Z" fill="black"/>
<path d="M25.1006 124.305C31.7416 123.132 38.4476 122.327 45.1692 121.727C51.8936 121.152 58.6353 120.814 65.3943 120.715C72.1484 120.579 78.9081 120.827 85.6524 121.254C92.3973 121.735 99.1116 122.578 105.766 123.778L105.187 124.094C106.414 121.455 107.83 118.91 109.425 116.476C110.224 115.26 111.102 114.098 112.055 112.998C112.97 111.857 114.156 110.963 115.505 110.398C114.233 111.071 113.139 112.037 112.315 113.217C111.446 114.357 110.654 115.553 109.944 116.797C108.536 119.295 107.276 121.873 106.169 124.517L106.017 124.881L105.589 124.833C102.249 124.457 98.9387 123.902 95.5861 123.664C93.9137 123.519 92.2482 123.312 90.5729 123.205L85.5475 122.882C83.8752 122.741 82.194 122.722 80.5179 122.636C78.8404 122.568 77.164 122.48 75.4842 122.471L70.4477 122.366L65.4087 122.366C58.69 122.401 51.9703 122.583 45.2498 122.912C38.531 123.242 31.813 123.68 25.1006 124.305Z" fill="black"/>
<path d="M148.669 149.734C146.944 147.472 145.025 145.365 143.123 143.25C141.216 141.136 139.287 139.044 137.334 136.972C133.466 132.795 129.513 128.694 125.597 124.563L125.536 124.499L125.506 124.405C124.717 121.642 123.649 118.967 122.316 116.421C121.702 115.117 120.863 113.942 120.123 112.706C119.265 111.551 118.462 110.349 117.501 109.271C115.642 107.058 113.566 105.038 111.303 103.24C109.043 101.443 106.598 99.8914 104.009 98.6116L103.948 98.5816L103.921 98.5256C103.27 97.1733 102.691 95.7871 102.187 94.3731C101.931 93.6642 101.711 92.9429 101.528 92.2119C101.329 91.472 101.213 90.7125 101.182 89.9472L101.211 90.065C100.831 89.3961 100.415 88.7356 99.9724 88.1052C99.5574 87.4769 99.0575 86.909 98.4869 86.4177C98.3665 86.3186 98.228 86.2438 98.0791 86.1975C98.0506 86.1939 98.0225 86.1882 97.9948 86.1805C97.9877 86.1723 97.8474 86.1679 97.7817 86.1494C97.6186 86.0995 97.4779 85.9946 97.3834 85.8526C97.164 85.4231 97.1223 84.9244 97.2676 84.4644C97.3611 84.0307 97.5534 83.6243 97.8295 83.277C98.1057 82.9297 98.4582 82.6508 98.8597 82.4619C99.2742 82.3089 99.7168 82.2469 100.157 82.2804C100.598 82.3138 101.026 82.4419 101.413 82.6558C102.136 83.0273 102.815 83.4777 103.439 83.9986C104.684 85.0014 105.738 86.2295 106.823 87.2789C106.951 87.3996 107.087 87.5119 107.23 87.6151C107.298 87.6595 107.37 87.6982 107.444 87.7307C107.361 87.7799 107.453 87.7338 107.487 87.5707C107.531 87.4065 107.56 87.2386 107.573 87.0692C107.649 86.3269 107.655 85.5366 107.674 84.7638C107.697 83.2075 107.683 81.6449 107.663 80.083C107.624 76.9589 107.57 73.8304 107.484 70.7063L107.478 70.5103L107.608 70.3866C108.001 70.0044 108.467 69.7053 108.979 69.5073C109.524 69.2877 110.129 69.2682 110.687 69.4525C111.214 69.661 111.675 70.0082 112.021 70.4574C112.175 70.6721 112.322 70.8923 112.458 71.1146L112.8 71.8029L112.383 71.5456C112.947 71.5409 113.508 71.6316 114.043 71.8141C114.568 71.9871 115.064 72.2398 115.512 72.5633C115.96 72.8832 116.358 73.2674 116.693 73.7035C117.023 74.133 117.304 74.5988 117.529 75.0919L117.152 74.8745C117.817 74.8522 118.477 74.9858 119.08 75.2645C119.674 75.5364 120.201 75.9345 120.626 76.431C121.028 76.9272 121.346 77.4866 121.566 78.0866C121.676 78.3812 121.747 78.6861 121.838 78.985L122.002 79.9003L121.76 79.6448C122.534 79.9403 123.221 80.4281 123.755 81.0623C124.289 81.6965 124.653 82.4562 124.812 83.2698C125.14 84.8046 125.284 86.3733 125.239 87.9423C125.238 91.0493 124.996 94.1409 124.686 97.2215L124.601 97.2139C124.804 94.1279 124.889 91.0312 124.823 87.9484C124.836 86.4212 124.667 84.8978 124.32 83.4105C124.125 82.6953 123.791 82.0254 123.338 81.4387C122.913 80.8718 122.321 80.4526 121.645 80.2402L121.442 80.1868L121.402 79.9845L121.231 79.1327C121.141 78.8607 121.07 78.5805 120.965 78.3161C120.761 77.7926 120.473 77.3061 120.111 76.8759C119.746 76.4658 119.295 76.14 118.791 75.921C118.297 75.7056 117.761 75.6045 117.222 75.6253L116.964 75.6395L116.845 75.4078C116.636 74.9754 116.379 74.5679 116.078 74.1932C115.783 73.8236 115.435 73.4999 115.044 73.2327C114.657 72.9651 114.232 72.7589 113.782 72.6212C113.345 72.4792 112.889 72.4055 112.43 72.4026L112.144 72.4069L112.013 72.1452L111.709 71.5396C111.593 71.3526 111.47 71.1705 111.345 70.9939C111.1 70.6765 110.777 70.4285 110.407 70.2745C110.038 70.1562 109.64 70.1744 109.284 70.3259C108.895 70.481 108.54 70.7095 108.237 70.9989L108.361 70.6797C108.453 73.8114 108.538 76.9405 108.56 80.0747C108.566 81.6421 108.566 83.209 108.528 84.7814C108.501 85.5719 108.491 86.3488 108.401 87.1632C108.381 87.3836 108.34 87.6016 108.279 87.8143C108.239 87.9456 108.183 88.0712 108.111 88.1877C108.001 88.3597 107.829 88.4829 107.631 88.532C107.478 88.5545 107.321 88.5443 107.172 88.5021C107.022 88.46 106.884 88.3867 106.765 88.2872C106.591 88.1605 106.426 88.0224 106.27 87.8737C105.119 86.7371 104.138 85.5671 102.949 84.592C102.38 84.0986 101.759 83.6681 101.097 83.3079C100.803 83.1314 100.474 83.0203 100.134 82.9823C99.7927 82.9443 99.4477 82.9802 99.1219 83.0875C98.812 83.2309 98.539 83.4434 98.3239 83.7086C98.1088 83.9738 97.9573 84.2848 97.881 84.6177C97.7809 84.9085 97.7839 85.225 97.8897 85.5139C97.9707 85.5904 97.8425 85.5451 98.2261 85.618C98.4513 85.6865 98.6604 85.7996 98.841 85.9505C99.4508 86.4888 99.9813 87.1108 100.417 87.798C100.86 88.4573 101.266 89.1304 101.645 89.8292L101.676 89.8847L101.675 89.9472C101.692 90.6755 101.79 91.3995 101.97 92.1054C102.14 92.8251 102.347 93.5358 102.588 94.2348C103.067 95.6409 103.621 97.0205 104.247 98.3677L104.16 98.282C106.748 99.6167 109.196 101.208 111.468 103.031C113.758 104.825 115.874 106.832 117.788 109.024C118.785 110.087 119.629 111.277 120.527 112.425C121.362 113.622 122.135 114.86 122.845 116.134C124.278 118.686 125.41 121.395 126.22 124.208L126.13 124.05C130.101 128.139 133.953 132.338 137.798 136.546C139.697 138.671 141.578 140.812 143.441 142.971C145.276 145.151 147.098 147.35 148.739 149.685L148.669 149.734Z" fill="black"/>
<path d="M115.999 164.186C115.911 167.005 115.804 169.816 115.818 172.628C115.795 175.437 115.839 178.244 115.987 181.032C116.104 183.804 116.455 186.56 117.034 189.273C117.628 191.982 118.4 194.699 119.038 197.463C119.661 200.232 120.161 203.036 120.516 205.852C120.867 208.67 121.077 211.497 121.196 214.324C121.399 219.969 121.273 225.622 120.817 231.253C120.581 225.616 120.317 219.996 119.866 214.408C119.434 208.834 118.601 203.298 117.375 197.843C116.779 195.113 116.014 192.407 115.456 189.603C114.92 186.793 114.653 183.937 114.66 181.076C114.647 175.419 115.095 169.77 115.999 164.186V164.186Z" fill="black"/>
<path d="M29.9834 227.278C34.2665 229.015 38.711 230.325 43.252 231.187C44.3849 231.402 45.5073 231.662 46.6433 231.852L50.0635 232.351C52.3333 232.744 54.6415 232.857 56.9286 233.1C66.116 233.758 75.3453 233.539 84.491 232.444L91.3376 231.526C93.6154 231.191 95.8604 230.654 98.1267 230.242C102.684 229.506 107.101 228.155 111.589 227.079C113.847 226.583 116.01 225.761 118.222 225.103L124.839 223.037C129.196 221.498 133.5 219.802 137.875 218.26C135.766 219.211 133.647 220.147 131.519 221.069C129.389 221.983 127.277 222.953 125.127 223.823L118.57 226.167L115.285 227.326C114.197 227.737 113.078 228.051 111.958 228.36C107.481 229.598 103.034 230.988 98.4527 231.826L95.0346 232.53C93.8908 232.741 92.764 233.048 91.6052 233.173L84.6887 234.139C75.4316 235.24 66.0825 235.335 56.805 234.422L53.3382 233.996C52.7614 233.92 52.1816 233.868 51.6076 233.77L49.8901 233.452L46.4589 232.81C45.321 232.57 44.1945 232.271 43.0646 231.998C38.5443 230.909 34.1575 229.326 29.9834 227.278V227.278Z" fill="black"/>
<path d="M52.9295 418.684C53.2539 419.479 53.4786 420.312 53.5984 421.163C53.7217 421.984 53.7834 422.813 53.783 423.643C53.7853 424.473 53.7243 425.302 53.6008 426.122C53.4816 426.974 53.2561 427.807 52.9295 428.602C52.6028 427.807 52.3773 426.974 52.258 426.122C52.1345 425.302 52.0736 424.473 52.0757 423.643C52.0755 422.813 52.1372 421.984 52.2604 421.163C52.3801 420.312 52.6049 419.479 52.9295 418.684V418.684Z" fill="black"/>
<path d="M76.7281 418.684C77.054 419.57 77.2785 420.491 77.3972 421.429C77.5205 422.339 77.5821 423.256 77.5816 424.174C77.5839 425.092 77.5231 426.009 77.3994 426.919C77.2813 427.857 77.0561 428.778 76.7281 429.664C76.4001 428.778 76.1748 427.857 76.0566 426.919C75.933 426.009 75.8722 425.092 75.8746 424.174C75.8741 423.256 75.9357 422.339 76.059 421.429C76.1777 420.491 76.4022 419.57 76.7281 418.684V418.684Z" fill="black"/>
<path d="M101.929 419.649C102.421 420.344 102.842 421.086 103.186 421.865C103.526 422.616 103.816 423.373 104.075 424.134C104.336 424.894 104.561 425.659 104.782 426.419C104.894 426.798 104.992 427.182 105.124 427.549C105.22 427.939 105.41 428.301 105.678 428.601C105.203 428.578 104.756 428.371 104.432 428.022C104.106 427.714 103.817 427.37 103.569 426.996C103.101 426.276 102.728 425.499 102.459 424.684C102.189 423.885 102 423.062 101.897 422.225C101.781 421.37 101.792 420.502 101.929 419.649Z" fill="black"/>
<path d="M68.5878 438.694C68.7223 437.136 69.133 435.614 69.8006 434.199C68.9177 435.332 64.1107 433.539 61.5866 431.523C58.9289 429.4 54.6836 428.598 54.6836 428.598C51.0004 428.482 49.2789 433.111 48.512 438.248C50.0085 437.257 51.7277 436.653 53.5152 436.491C54.422 436.416 55.335 436.47 56.2265 436.652C57.1215 436.848 57.9816 437.179 58.7773 437.633C59.5045 438.092 60.2612 438.504 61.0425 438.864C61.8282 439.175 62.6539 439.373 63.4951 439.452C64.3489 439.516 65.2073 439.441 66.037 439.229C66.8869 439.033 67.6999 438.702 68.445 438.248C67.0548 439.415 65.2923 440.045 63.4775 440.023C62.5608 440.002 61.6539 439.83 60.793 439.515C59.9695 439.161 59.1736 438.747 58.4115 438.275C56.9321 437.426 55.2468 437.003 53.542 437.053C51.8034 437.119 50.0945 437.525 48.512 438.248C48.1065 441.183 47.9098 444.142 47.9233 447.105C49.4662 447.355 51.0003 447.613 52.5343 447.845C54.0683 448.068 55.6023 448.291 57.1362 448.443C58.6791 448.612 60.2131 448.728 61.756 448.746C62.1424 448.765 62.5295 448.763 62.9155 448.737C63.2992 448.719 63.6915 448.728 64.066 448.675C64.4495 448.639 64.8421 448.612 65.2255 448.559C65.6 448.479 65.9835 448.407 66.3671 448.345C64.9048 448.935 63.3501 449.264 61.7739 449.317C60.2031 449.408 58.6273 449.36 57.0648 449.174C55.5047 449.01 53.9559 448.751 52.4272 448.398C50.8991 448.067 49.3945 447.635 47.9233 447.105C47.9146 449.807 48.0483 451.707 48.0483 451.707C54.3979 454.879 61.7336 455.452 68.4986 453.304C68.3202 451.681 68.222 450.066 68.1687 448.434C68.1062 446.811 68.1241 445.187 68.1774 443.564C68.2248 441.934 68.3618 440.309 68.5878 438.694ZM130.822 434.538C128.869 433.824 119.308 435.064 115.598 427.447C111.879 419.839 106.001 427.804 103.807 430.64C101.605 433.467 96.1016 444.509 82.4829 431.88C82.4829 431.88 72.5655 425.859 69.9078 434.003C69.8899 434.038 69.881 434.065 69.8631 434.101C69.6011 434.825 69.4361 435.581 69.3725 436.348C69.3636 436.464 69.3457 436.589 69.3368 436.705C72.0186 435.81 74.8796 435.59 77.6669 436.063C79.1039 436.32 80.4803 436.843 81.7249 437.606C82.9734 438.373 84.0704 439.212 85.3191 439.871C86.5108 440.585 87.7952 441.131 89.1361 441.495C90.4724 441.839 91.8632 441.918 93.2298 441.727C93.9193 441.633 94.5997 441.481 95.2632 441.272C95.9243 441.037 96.5705 440.763 97.1985 440.451C98.4672 439.823 99.6787 439.086 100.819 438.248C98.7381 440.259 96.1429 441.657 93.319 442.289C91.8774 442.549 90.3969 442.5 88.9756 442.146C87.5656 441.791 86.2119 441.242 84.9533 440.514C83.6958 439.818 82.5363 438.917 81.3769 438.177C80.196 437.45 78.9034 436.923 77.551 436.616C76.1845 436.313 74.7846 436.187 73.3859 436.241C72.0233 436.264 70.6665 436.425 69.3367 436.723C69.2566 437.401 69.1852 438.07 69.1495 438.748C69.0426 440.362 68.9623 441.976 68.9087 443.591L68.7393 448.443C68.6679 450.057 68.6232 451.681 68.4985 453.304C73.0418 456.401 78.2796 458.329 83.7468 458.915C89.214 459.502 94.7415 458.729 99.8384 456.666C99.8384 456.666 111.165 453.482 122.144 454.365C133.123 455.248 152.423 450.12 153.662 442.503C150.604 444.336 147.411 445.935 144.11 447.283C140.792 448.622 137.351 449.631 133.836 450.298C132.077 450.644 130.294 450.862 128.503 450.949C127.603 450.998 126.7 450.989 125.801 450.922C124.918 450.887 124.035 450.869 123.143 450.851C119.593 450.824 116.05 450.955 112.512 451.243C108.971 451.511 105.44 451.93 101.943 452.519L99.3213 452.992L96.7169 453.536C94.9667 453.923 93.1946 454.203 91.4103 454.374C87.836 454.73 84.2273 454.483 80.7348 453.643C77.2468 452.816 73.9771 451.25 71.1473 449.049C74.0282 451.141 77.3254 452.589 80.8152 453.295C84.2756 454.055 87.8388 454.23 91.357 453.812C94.862 453.455 98.2955 452.421 101.827 451.85C105.35 451.243 108.891 450.794 112.449 450.503C116.008 450.236 119.584 450.128 123.152 450.182C124.044 450.2 124.935 450.227 125.836 450.271C126.715 450.335 127.596 450.35 128.476 450.316C130.241 450.234 131.998 450.04 133.738 449.736C137.234 449.141 140.663 448.206 143.977 446.945C147.315 445.717 150.553 444.232 153.662 442.503C154.902 434.886 132.766 435.242 130.822 434.538V434.538ZM103.567 449.112C101.399 450.824 98.706 451.02 97.5554 449.567C96.4049 448.104 97.2343 445.535 99.4103 443.823C101.578 442.119 104.271 441.914 105.422 443.377C106.572 444.83 105.743 447.399 103.567 449.112V449.112ZM138.287 440.478C137.939 441.201 137.573 441.905 137.181 442.601L137.127 442.699L137.002 442.69L130.84 442.333L124.686 441.887L118.532 441.37C116.481 441.2 114.438 440.995 112.387 440.781L112.119 440.755L112.182 440.505C112.69 438.328 113.252 436.161 113.823 434.003C113.466 436.116 113.092 438.23 112.681 440.335C114.652 440.451 116.623 440.558 118.585 440.71L124.739 441.165L130.893 441.7L136.922 442.306C137.332 441.673 137.734 441.031 138.108 440.389C138.304 440.041 138.501 439.693 138.679 439.345C138.874 438.998 139.029 438.63 139.143 438.248C138.958 439.026 138.67 439.776 138.287 440.478V440.478Z" fill="black"/>
<path d="M69.9078 434.003C69.89 434.039 69.881 434.065 69.8631 434.101C69.8541 434.135 69.8355 434.166 69.8096 434.19C69.8388 434.126 69.8716 434.063 69.9078 434.003Z" fill="white"/>
<path d="M74.5039 92.4062C74.5039 92.4062 69.0258 64.0941 78.4102 56.3028C87.7945 48.5115 106.917 56.3028 111.875 61.2609C111.875 61.2609 118.072 65.6878 110.281 69.5834C102.491 73.4791 99.8348 72.7031 99.8348 72.7031C99.8348 72.7031 96.6476 72.4166 96.1164 77.1976C96.1164 77.1976 86.7813 87.3871 86.7567 92.9168L74.5039 92.4062Z" fill="black"/>
<path d="M96.5407 77.2452C96.3648 78.2112 96.3271 79.1973 96.4285 80.174C96.4722 80.6524 96.6411 81.111 96.918 81.5036C97.0806 81.685 97.2907 81.8173 97.5245 81.8856C97.7583 81.9538 98.0066 81.9553 98.2412 81.8899C97.9975 81.9917 97.7303 82.0234 97.4695 81.9815C97.2088 81.9396 96.9649 81.8257 96.7654 81.6528C96.3954 81.2645 96.1351 80.7849 96.0111 80.2631C95.8738 79.758 95.7836 79.2413 95.7416 78.7196C95.693 78.1977 95.6765 77.6733 95.6924 77.1494L96.5407 77.2452Z" fill="black"/>
<path d="M99.8347 72.7031C100.586 74.4708 101.187 76.2982 101.633 78.1663C102.116 80.0253 102.44 81.9219 102.603 83.8358C101.85 82.0688 101.249 80.2411 100.805 78.3723C100.324 76.513 99.999 74.6167 99.8347 72.7031V72.7031Z" fill="black"/>
<path d="M112.775 71.9531L113.114 84.3687L112.038 71.995L112.775 71.9531Z" fill="black"/>
<path d="M117.555 75.2334L117.541 83.3062L116.818 75.266L117.555 75.2334Z" fill="black"/>
<path d="M122.071 79.9424L121.702 83.8354L121.333 79.9424H122.071Z" fill="black"/>
<path d="M239.676 252.357H233.284C233.198 251.7 233.024 251.108 232.759 250.58C232.495 250.051 232.146 249.6 231.711 249.225C231.276 248.85 230.761 248.564 230.164 248.368C229.576 248.164 228.924 248.061 228.208 248.061C226.938 248.061 225.843 248.372 224.923 248.994C224.011 249.617 223.308 250.516 222.813 251.692C222.328 252.868 222.085 254.291 222.085 255.962C222.085 257.7 222.332 259.158 222.826 260.334C223.329 261.502 224.032 262.384 224.936 262.98C225.848 263.568 226.926 263.862 228.17 263.862C228.869 263.862 229.504 263.773 230.075 263.594C230.654 263.415 231.161 263.155 231.596 262.814C232.039 262.465 232.401 262.043 232.683 261.548C232.973 261.046 233.173 260.479 233.284 259.848L239.676 259.887C239.565 261.046 239.228 262.188 238.666 263.313C238.112 264.438 237.349 265.465 236.377 266.394C235.406 267.314 234.221 268.047 232.823 268.593C231.434 269.138 229.84 269.411 228.042 269.411C225.673 269.411 223.551 268.891 221.676 267.851C219.809 266.803 218.335 265.277 217.252 263.274C216.17 261.271 215.629 258.834 215.629 255.962C215.629 253.081 216.178 250.639 217.278 248.637C218.377 246.634 219.865 245.112 221.74 244.073C223.615 243.033 225.715 242.513 228.042 242.513C229.627 242.513 231.093 242.735 232.44 243.178C233.786 243.612 234.971 244.252 235.994 245.095C237.017 245.931 237.848 246.958 238.487 248.176C239.126 249.395 239.522 250.789 239.676 252.357ZM252.463 269.423C250.4 269.423 248.628 269.002 247.145 268.158C245.67 267.306 244.533 266.121 243.731 264.604C242.939 263.078 242.542 261.31 242.542 259.298C242.542 257.279 242.939 255.51 243.731 253.993C244.533 252.468 245.67 251.283 247.145 250.439C248.628 249.587 250.4 249.161 252.463 249.161C254.525 249.161 256.294 249.587 257.768 250.439C259.251 251.283 260.389 252.468 261.182 253.993C261.983 255.51 262.383 257.279 262.383 259.298C262.383 261.31 261.983 263.078 261.182 264.604C260.389 266.121 259.251 267.306 257.768 268.158C256.294 269.002 254.525 269.423 252.463 269.423ZM252.501 264.706C253.251 264.706 253.886 264.476 254.406 264.016C254.926 263.556 255.322 262.916 255.595 262.098C255.876 261.28 256.017 260.334 256.017 259.26C256.017 258.169 255.876 257.215 255.595 256.396C255.322 255.578 254.926 254.939 254.406 254.479C253.886 254.019 253.251 253.789 252.501 253.789C251.726 253.789 251.069 254.019 250.533 254.479C250.004 254.939 249.599 255.578 249.318 256.396C249.045 257.215 248.909 258.169 248.909 259.26C248.909 260.334 249.045 261.28 249.318 262.098C249.599 262.916 250.004 263.556 250.533 264.016C251.069 264.476 251.726 264.706 252.501 264.706ZM271.837 257.854V269.053H265.586V249.416H271.53V253.021H271.748C272.182 251.82 272.924 250.878 273.972 250.196C275.02 249.506 276.269 249.161 277.718 249.161C279.099 249.161 280.296 249.472 281.31 250.094C282.333 250.708 283.126 251.568 283.688 252.676C284.259 253.776 284.54 255.063 284.532 256.537V269.053H278.28V257.764C278.289 256.673 278.012 255.821 277.449 255.208C276.895 254.594 276.124 254.287 275.135 254.287C274.479 254.287 273.9 254.432 273.397 254.722C272.903 255.003 272.519 255.408 272.246 255.936C271.982 256.465 271.846 257.104 271.837 257.854ZM299.486 249.416V254.019H287.098V249.416H299.486ZM289.693 244.712H295.945V262.878C295.945 263.262 296.004 263.573 296.124 263.811C296.252 264.041 296.435 264.208 296.673 264.31C296.912 264.404 297.198 264.45 297.53 264.45C297.769 264.45 298.02 264.429 298.284 264.387C298.557 264.335 298.762 264.293 298.898 264.259L299.844 268.771C299.546 268.857 299.124 268.963 298.578 269.091C298.041 269.219 297.398 269.3 296.648 269.334C295.182 269.402 293.925 269.232 292.877 268.823C291.837 268.405 291.04 267.757 290.486 266.879C289.941 266.002 289.676 264.898 289.693 263.568V244.712ZM311.644 269.423C309.59 269.423 307.817 269.019 306.325 268.209C304.843 267.391 303.7 266.227 302.899 264.719C302.107 263.202 301.71 261.399 301.71 259.311C301.71 257.283 302.111 255.51 302.912 253.993C303.713 252.468 304.843 251.283 306.3 250.439C307.757 249.587 309.475 249.161 311.452 249.161C312.85 249.161 314.128 249.378 315.287 249.813C316.446 250.247 317.448 250.891 318.291 251.743C319.135 252.595 319.791 253.648 320.26 254.901C320.729 256.145 320.963 257.573 320.963 259.183V260.743H303.897V257.112H315.147C315.138 256.448 314.98 255.855 314.673 255.335C314.367 254.816 313.945 254.411 313.408 254.121C312.879 253.823 312.27 253.673 311.58 253.673C310.881 253.673 310.254 253.831 309.7 254.146C309.147 254.453 308.708 254.875 308.384 255.412C308.06 255.941 307.889 256.541 307.872 257.215V260.909C307.872 261.71 308.03 262.414 308.345 263.019C308.661 263.615 309.108 264.08 309.688 264.412C310.267 264.744 310.958 264.911 311.759 264.911C312.313 264.911 312.816 264.834 313.267 264.681C313.719 264.527 314.107 264.301 314.431 264.003C314.754 263.705 314.997 263.338 315.159 262.904L320.899 263.07C320.661 264.357 320.137 265.477 319.327 266.432C318.526 267.378 317.473 268.115 316.169 268.644C314.865 269.164 313.357 269.423 311.644 269.423ZM330.408 257.854V269.053H324.156V249.416H330.101V253.021H330.318C330.753 251.82 331.494 250.878 332.542 250.196C333.591 249.506 334.839 249.161 336.288 249.161C337.669 249.161 338.866 249.472 339.881 250.094C340.903 250.708 341.696 251.568 342.258 252.676C342.829 253.776 343.111 255.063 343.102 256.537V269.053H336.851V257.764C336.859 256.673 336.582 255.821 336.02 255.208C335.466 254.594 334.694 254.287 333.706 254.287C333.05 254.287 332.47 254.432 331.967 254.722C331.473 255.003 331.089 255.408 330.817 255.936C330.552 256.465 330.416 257.104 330.408 257.854ZM358.056 249.416V254.019H345.669V249.416H358.056ZM348.264 244.712H354.515V262.878C354.515 263.262 354.575 263.573 354.694 263.811C354.822 264.041 355.005 264.208 355.244 264.31C355.482 264.404 355.768 264.45 356.1 264.45C356.339 264.45 356.59 264.429 356.855 264.387C357.127 264.335 357.332 264.293 357.468 264.259L358.414 268.771C358.116 268.857 357.694 268.963 357.149 269.091C356.612 269.219 355.968 269.3 355.218 269.334C353.752 269.402 352.495 269.232 351.447 268.823C350.407 268.405 349.61 267.757 349.056 266.879C348.511 266.002 348.247 264.898 348.264 263.568V244.712ZM368.98 269.053V249.416H375.232V269.053H368.98ZM372.112 247.128C371.235 247.128 370.48 246.838 369.85 246.259C369.219 245.671 368.904 244.963 368.904 244.137C368.904 243.318 369.219 242.619 369.85 242.04C370.48 241.452 371.235 241.158 372.112 241.158C372.999 241.158 373.753 241.452 374.375 242.04C375.006 242.619 375.321 243.318 375.321 244.137C375.321 244.963 375.006 245.671 374.375 246.259C373.753 246.838 372.999 247.128 372.112 247.128ZM396.354 255.412L390.614 255.566C390.555 255.156 390.393 254.794 390.128 254.479C389.864 254.155 389.519 253.904 389.093 253.725C388.675 253.537 388.189 253.443 387.635 253.443C386.911 253.443 386.293 253.588 385.782 253.878C385.279 254.168 385.032 254.56 385.04 255.054C385.032 255.438 385.185 255.77 385.501 256.051C385.824 256.333 386.4 256.558 387.226 256.729L391.01 257.445C392.971 257.82 394.428 258.442 395.383 259.311C396.346 260.181 396.832 261.331 396.84 262.763C396.832 264.11 396.431 265.281 395.638 266.279C394.854 267.276 393.78 268.051 392.417 268.605C391.053 269.151 389.493 269.423 387.738 269.423C384.934 269.423 382.722 268.848 381.103 267.698C379.492 266.539 378.572 264.987 378.341 263.044L384.516 262.891C384.653 263.607 385.006 264.152 385.577 264.527C386.148 264.902 386.877 265.09 387.763 265.09C388.564 265.09 389.216 264.941 389.719 264.642C390.222 264.344 390.478 263.948 390.486 263.453C390.478 263.01 390.282 262.656 389.898 262.392C389.515 262.119 388.914 261.906 388.096 261.753L384.67 261.101C382.701 260.743 381.235 260.083 380.272 259.119C379.309 258.148 378.832 256.912 378.84 255.412C378.832 254.1 379.181 252.979 379.888 252.05C380.596 251.112 381.601 250.396 382.905 249.902C384.209 249.408 385.748 249.161 387.52 249.161C390.18 249.161 392.276 249.719 393.81 250.835C395.344 251.943 396.192 253.469 396.354 255.412ZM421.638 257.854V269.053H415.387V249.416H421.331V253.021H421.548C421.983 251.82 422.725 250.878 423.773 250.196C424.821 249.506 426.07 249.161 427.519 249.161C428.899 249.161 430.097 249.472 431.111 250.094C432.134 250.708 432.926 251.568 433.489 252.676C434.06 253.776 434.341 255.063 434.333 256.537V269.053H428.081V257.764C428.09 256.673 427.813 255.821 427.25 255.208C426.696 254.594 425.925 254.287 424.936 254.287C424.28 254.287 423.7 254.432 423.198 254.722C422.703 255.003 422.32 255.408 422.047 255.936C421.783 256.465 421.647 257.104 421.638 257.854ZM447.369 269.423C445.307 269.423 443.534 269.002 442.051 268.158C440.577 267.306 439.439 266.121 438.638 264.604C437.845 263.078 437.449 261.31 437.449 259.298C437.449 257.279 437.845 255.51 438.638 253.993C439.439 252.468 440.577 251.283 442.051 250.439C443.534 249.587 445.307 249.161 447.369 249.161C449.432 249.161 451.2 249.587 452.675 250.439C454.158 251.283 455.295 252.468 456.088 253.993C456.889 255.51 457.29 257.279 457.29 259.298C457.29 261.31 456.889 263.078 456.088 264.604C455.295 266.121 454.158 267.306 452.675 268.158C451.2 269.002 449.432 269.423 447.369 269.423ZM447.408 264.706C448.158 264.706 448.792 264.476 449.312 264.016C449.832 263.556 450.229 262.916 450.501 262.098C450.783 261.28 450.923 260.334 450.923 259.26C450.923 258.169 450.783 257.215 450.501 256.396C450.229 255.578 449.832 254.939 449.312 254.479C448.792 254.019 448.158 253.789 447.408 253.789C446.632 253.789 445.976 254.019 445.439 254.479C444.91 254.939 444.506 255.578 444.224 256.396C443.952 257.215 443.815 258.169 443.815 259.26C443.815 260.334 443.952 261.28 444.224 262.098C444.506 262.916 444.91 263.556 445.439 264.016C445.976 264.476 446.632 264.706 447.408 264.706ZM471.576 249.416V254.019H459.188V249.416H471.576ZM461.783 244.712H468.035V262.878C468.035 263.262 468.094 263.573 468.214 263.811C468.341 264.041 468.525 264.208 468.763 264.31C469.002 264.404 469.287 264.45 469.62 264.45C469.859 264.45 470.11 264.429 470.374 264.387C470.647 264.335 470.851 264.293 470.988 264.259L471.934 268.771C471.635 268.857 471.214 268.963 470.668 269.091C470.131 269.219 469.488 269.3 468.738 269.334C467.272 269.402 466.015 269.232 464.966 268.823C463.927 268.405 463.13 267.757 462.576 266.879C462.03 266.002 461.766 264.898 461.783 263.568V244.712ZM488.751 257.854V269.053H482.5V242.871H488.547V253.021H488.764C489.207 251.811 489.932 250.865 490.937 250.183C491.952 249.502 493.192 249.161 494.658 249.161C496.038 249.161 497.24 249.468 498.263 250.081C499.285 250.686 500.078 251.543 500.64 252.651C501.211 253.759 501.493 255.054 501.484 256.537V269.053H495.233V257.764C495.241 256.673 494.969 255.821 494.415 255.208C493.861 254.594 493.081 254.287 492.075 254.287C491.419 254.287 490.839 254.432 490.336 254.722C489.842 255.003 489.454 255.408 489.173 255.936C488.9 256.465 488.76 257.104 488.751 257.854ZM514.566 269.423C512.512 269.423 510.739 269.019 509.247 268.209C507.764 267.391 506.622 266.227 505.821 264.719C505.029 263.202 504.632 261.399 504.632 259.311C504.632 257.283 505.033 255.51 505.834 253.993C506.635 252.468 507.764 251.283 509.222 250.439C510.679 249.587 512.397 249.161 514.374 249.161C515.772 249.161 517.05 249.378 518.209 249.813C519.368 250.247 520.37 250.891 521.213 251.743C522.057 252.595 522.713 253.648 523.182 254.901C523.651 256.145 523.885 257.573 523.885 259.183V260.743H506.818V257.112H518.068C518.06 256.448 517.902 255.855 517.595 255.335C517.289 254.816 516.867 254.411 516.33 254.121C515.801 253.823 515.192 253.673 514.502 253.673C513.803 253.673 513.176 253.831 512.622 254.146C512.068 254.453 511.629 254.875 511.306 255.412C510.982 255.941 510.811 256.541 510.794 257.215V260.909C510.794 261.71 510.952 262.414 511.267 263.019C511.583 263.615 512.03 264.08 512.61 264.412C513.189 264.744 513.879 264.911 514.681 264.911C515.235 264.911 515.737 264.834 516.189 264.681C516.641 264.527 517.029 264.301 517.352 264.003C517.676 263.705 517.919 263.338 518.081 262.904L523.821 263.07C523.583 264.357 523.058 265.477 522.249 266.432C521.448 267.378 520.395 268.115 519.091 268.644C517.787 269.164 516.279 269.423 514.566 269.423ZM527.078 269.053V249.416H533.15V252.996H533.355C533.713 251.7 534.297 250.737 535.106 250.107C535.916 249.468 536.858 249.148 537.932 249.148C538.221 249.148 538.52 249.169 538.827 249.212C539.133 249.246 539.419 249.301 539.683 249.378V254.811C539.385 254.709 538.993 254.628 538.507 254.568C538.03 254.509 537.604 254.479 537.229 254.479C536.487 254.479 535.818 254.645 535.221 254.977C534.633 255.301 534.169 255.757 533.828 256.345C533.496 256.925 533.329 257.607 533.329 258.391V269.053H527.078ZM550.39 269.423C548.336 269.423 546.563 269.019 545.072 268.209C543.589 267.391 542.447 266.227 541.645 264.719C540.853 263.202 540.457 261.399 540.457 259.311C540.457 257.283 540.857 255.51 541.658 253.993C542.459 252.468 543.589 251.283 545.046 250.439C546.503 249.587 548.221 249.161 550.198 249.161C551.596 249.161 552.874 249.378 554.033 249.813C555.192 250.247 556.194 250.891 557.037 251.743C557.881 252.595 558.537 253.648 559.006 254.901C559.475 256.145 559.709 257.573 559.709 259.183V260.743H542.643V257.112H553.893C553.884 256.448 553.726 255.855 553.42 255.335C553.113 254.816 552.691 254.411 552.154 254.121C551.626 253.823 551.016 253.673 550.326 253.673C549.627 253.673 549.001 253.831 548.447 254.146C547.893 254.453 547.454 254.875 547.13 255.412C546.806 255.941 546.635 256.541 546.618 257.215V260.909C546.618 261.71 546.776 262.414 547.091 263.019C547.407 263.615 547.854 264.08 548.434 264.412C549.013 264.744 549.704 264.911 550.505 264.911C551.059 264.911 551.562 264.834 552.013 264.681C552.465 264.527 552.853 264.301 553.177 264.003C553.501 263.705 553.743 263.338 553.905 262.904L559.645 263.07C559.407 264.357 558.883 265.477 558.073 266.432C557.272 267.378 556.219 268.115 554.915 268.644C553.611 269.164 552.103 269.423 550.39 269.423Z" fill="black"/>
</svg>
