<svg width="166" height="407" viewBox="0 0 166 407" fill="none" xmlns="http://www.w3.org/2000/svg">
<path d="M110.987 185.155C109.239 185.53 107.482 185.869 105.716 186.172C105.885 190.498 106.019 194.824 106.153 199.149C107.297 199.448 108.512 199.281 109.533 198.686C110.71 198.031 111.783 197.204 112.717 196.233C113.694 195.268 114.62 194.253 115.491 193.191C116.338 192.166 117.185 191.122 118.015 190.052V190.043C118.139 186.653 118.273 184.317 118.425 183.282L110.987 185.155ZM109.81 199.292C109.135 199.584 108.404 199.724 107.669 199.702C107.14 199.669 106.624 199.526 106.153 199.283C106.242 202.057 106.322 204.84 106.412 207.623L106.973 230.081C107.33 245.056 107.526 260.032 107.812 275.007C107.954 289.991 108.177 304.967 108.258 319.942L108.338 342.418C108.302 349.91 108.329 357.394 108.24 364.886C109.817 364.252 111.312 363.428 112.69 362.433C114.067 361.436 115.285 360.236 116.302 358.874C116.302 358.874 116.739 223.632 118.006 190.132C116.849 192.627 115.261 194.897 113.315 196.839C112.313 197.873 111.123 198.705 109.81 199.292ZM106.947 319.969C106.59 304.993 106.385 290.009 106.108 275.034C105.966 260.058 105.734 245.083 105.662 230.099L105.582 207.631C105.618 200.478 105.591 193.334 105.671 186.181C80.7616 190.444 54.0861 187.644 39.6112 185.155L35.0359 184.308C35.0359 184.308 36.6234 348.242 44.5966 359.926C52.5611 371.62 75.4015 364.895 75.4015 364.895C75.4015 364.895 95.0493 370.282 108.24 364.886C107.937 357.402 107.749 349.919 107.5 342.427L106.947 319.969ZM74.0015 354.736C73.6803 351.329 73.4216 347.921 73.1897 344.514C72.7706 337.691 72.4762 330.868 72.2086 324.036C71.7004 310.381 71.4775 296.725 71.1831 283.07C71.0226 269.415 70.8205 255.762 70.5767 242.113C70.4428 235.29 70.3359 228.458 69.8453 221.67C69.7828 220.823 69.7027 219.976 69.5955 219.137C69.5422 218.727 69.4797 218.308 69.3994 217.906C69.3101 217.523 69.2121 217.059 69.0159 216.961C67.6246 215.935 66.3225 214.838 65.0115 213.732C62.3982 211.529 59.8565 209.246 57.3414 206.936C59.9723 209.112 62.6212 211.271 65.2967 213.384C66.6345 214.437 67.9901 215.48 69.3815 216.435C69.5078 216.517 69.6169 216.623 69.7026 216.747C69.7673 216.857 69.821 216.974 69.8631 217.095C69.9464 217.307 70.0149 217.524 70.0682 217.746C70.1753 218.183 70.2555 218.602 70.3269 219.03C70.4695 219.887 70.5767 220.743 70.6747 221.59C71.3435 228.413 71.5933 235.245 71.8877 242.068C72.405 255.733 72.5833 269.388 72.8866 283.043C73.0561 296.698 73.2671 310.351 73.5198 324C73.6268 330.832 73.7785 337.655 74.0281 344.47C74.1263 347.886 74.26 351.293 74.4474 354.7C74.5454 356.403 74.6613 358.107 74.813 359.802C74.9556 361.505 75.1164 363.2 75.4016 364.886C74.7434 361.531 74.2759 358.143 74.0015 354.736V354.736Z" fill="black"/>
<path d="M105.68 185.155C105.698 185.494 105.707 185.833 105.716 186.172C105.702 186.179 105.687 186.183 105.671 186.181C105.671 185.842 105.68 185.494 105.68 185.155Z" fill="white"/>
<path d="M118.095 189.945C118.069 190.006 118.039 190.066 118.006 190.124C118.005 190.1 118.008 190.075 118.015 190.052V190.043C118.042 190.008 118.068 189.981 118.095 189.945Z" fill="white"/>
<path d="M110.965 185.076C115.852 183.972 120.65 182.506 125.32 180.69C129.973 178.877 134.434 176.602 138.634 173.899L138.429 174.33L135.451 149.246L132.583 124.15L132.484 123.277L133.378 123.349C138.167 123.749 142.984 123.654 147.753 123.063C150.119 122.777 152.455 122.276 154.73 121.565C156.974 120.897 159.068 119.802 160.898 118.341C162.681 116.906 163.9 114.887 164.338 112.641C164.706 110.333 164.534 107.972 163.838 105.742C162.523 101.104 160.759 96.6055 158.571 92.3101C154.202 83.6467 149.247 75.2918 143.74 67.3039C141.005 63.2936 138.169 59.3546 135.232 55.4869C133.762 53.5565 132.266 51.6442 130.708 49.7863C129.93 48.8565 129.134 47.9437 128.321 47.0481C127.546 46.1528 126.68 45.3412 125.735 44.6266L125.821 44.6556C122.214 44.1606 118.569 43.9963 114.932 44.1648C113.115 44.2379 111.302 44.4065 109.503 44.6697C107.707 44.9355 105.929 45.3098 104.178 45.7906L104.005 45.8359L103.865 45.7276L100.131 42.8324L100.254 42.8971C90.3116 40.2277 79.9744 39.3469 69.7241 40.2958L67.8111 40.4802L65.9102 40.7609L64.0102 41.0414L62.1244 41.427C59.611 41.8892 57.1336 42.5291 54.7108 43.3421C49.854 44.8669 45.2896 47.2009 41.2099 50.2456C39.222 51.7916 37.4805 53.6306 36.0449 55.6997C34.5196 57.7389 33.1015 59.8877 31.7188 62.0533C28.9596 66.3935 26.332 70.8298 23.7896 75.3147C21.2497 79.8013 18.7732 84.3238 16.3601 88.8822C13.9487 93.4377 11.5753 98.0209 9.38746 102.668C8.82523 103.827 8.33096 104.998 7.81932 106.166L7.17002 107.903C6.98864 108.501 6.8201 109.117 6.65789 109.734C6.01164 112.209 5.44987 114.723 4.92207 117.239C3.87604 122.276 2.9931 127.351 2.35252 132.445C2.032 134.991 1.77898 137.544 1.66489 140.093C1.49033 142.603 1.62525 145.125 2.06663 147.601C2.32051 148.757 2.81107 149.96 3.57164 150.332C3.66477 150.379 3.76265 150.416 3.86364 150.443L4.31588 150.522L5.22017 150.682C5.84639 150.735 6.46735 150.81 7.0986 150.847C9.65299 150.963 12.2118 150.94 14.7637 150.778C19.891 150.486 25.0312 149.971 30.1243 149.277L31.0706 149.136C31.2272 149.111 31.3935 149.086 31.5057 149.061L31.6 149.043L31.6474 149.035C31.4234 148.994 32.3903 148.989 32.3529 149.29C32.4223 149.406 32.4584 149.539 32.4574 149.674C32.4609 149.742 32.459 149.791 32.4572 149.842C32.3962 150.51 32.301 151.175 32.1722 151.834L31.4458 155.649C30.9498 158.184 30.4551 160.716 29.995 163.254C29.5336 165.792 29.1084 168.335 28.7461 170.884C28.3497 173.423 28.117 175.984 28.0495 178.553C28.0426 179.188 28.0732 179.823 28.1414 180.455C28.1841 181.065 28.3518 181.659 28.6339 182.202C28.7795 182.44 29.0126 182.611 29.283 182.678C29.5745 182.789 29.8831 182.881 30.1888 182.973C30.8037 183.154 31.4273 183.316 32.052 183.471C34.5538 184.089 37.0859 184.601 39.6232 185.075L39.5942 185.244C37.043 184.832 34.497 184.384 31.9686 183.825C31.3367 183.684 30.7059 183.538 30.0773 183.37C29.7629 183.283 29.4498 183.198 29.1343 183.088C28.7722 182.992 28.4577 182.767 28.2503 182.456C27.9123 181.861 27.7034 181.202 27.6373 180.521C27.5505 179.87 27.5022 179.215 27.493 178.558C27.623 173.371 28.1665 168.203 29.1182 163.103C29.536 160.55 29.9882 158.004 30.4405 155.461L31.0983 151.652C31.1941 151.03 31.3075 150.361 31.3354 149.807L31.3345 149.733C31.3493 149.734 31.2932 149.667 31.394 149.881C31.3387 150.14 32.2571 150.136 31.9954 150.108L31.9242 150.125L31.7817 150.158C31.5792 150.206 31.4264 150.229 31.2644 150.258L30.2979 150.42C25.1694 151.221 20.0178 151.795 14.843 152.143C12.2403 152.335 9.62906 152.386 7.02091 152.294C6.36312 152.262 5.69966 152.191 5.03882 152.14L4.03374 151.974L3.53119 151.89C3.31889 151.839 3.11278 151.765 2.91651 151.669C2.19993 151.287 1.62693 150.682 1.28369 149.946C0.968035 149.312 0.73076 148.642 0.57712 147.951C0.0751331 145.343 -0.100416 142.683 0.0545408 140.032C0.144247 137.418 0.374425 134.824 0.671859 132.241C1.2861 127.079 2.18075 121.968 3.21874 116.886C3.74566 114.346 4.30483 111.815 4.95783 109.29C5.12266 108.658 5.29292 108.028 5.48518 107.389L6.18588 105.495C6.70715 104.296 7.21556 103.086 7.77841 101.919C12.2142 92.5319 17.1319 83.4351 22.2829 74.4532C24.862 69.9657 27.5272 65.525 30.3362 61.1632C31.7459 58.9846 33.1877 56.8251 34.7681 54.7375C36.2999 52.5676 38.1494 50.6405 40.2545 49.0208C44.4964 45.9045 49.2427 43.5413 54.2859 42.0346C56.7728 41.2357 59.3132 40.6137 61.888 40.1733L63.8026 39.8077L65.7387 39.5466L67.6742 39.2864L69.6195 39.1233C80.0071 38.2895 90.4601 39.3182 100.486 42.1609L100.55 42.1794L100.608 42.2258L104.303 45.1712L103.99 45.1082C105.775 44.6455 107.585 44.2886 109.412 44.0395C111.234 43.7823 113.068 43.6208 114.907 43.5559C118.584 43.4039 122.268 43.5888 125.911 44.1085L125.966 44.1164L125.997 44.1375C126.996 44.883 127.908 45.7379 128.717 46.6863C129.532 47.5948 130.328 48.5172 131.106 49.4537C132.661 51.3271 134.189 53.2211 135.671 55.1502C138.642 59.0024 141.511 62.9309 144.276 66.9354C149.898 74.8929 154.999 83.2055 159.548 91.8212C161.845 96.1559 163.713 100.705 165.125 105.403C165.921 107.82 166.13 110.393 165.732 112.907C165.243 115.478 163.865 117.795 161.84 119.453C159.874 121.047 157.618 122.247 155.197 122.985C152.836 123.738 150.41 124.273 147.951 124.583C143.065 125.169 138.13 125.238 133.229 124.791L134.023 123.99L136.731 149.104L139.329 174.23L139.358 174.513L139.123 174.661C134.839 177.332 130.278 179.532 125.521 181.223C120.788 182.922 115.934 184.265 111.001 185.243L110.965 185.076Z" fill="black"/>
<path d="M105.678 98.3027C107.489 100.921 109.443 103.437 111.531 105.84C113.608 108.241 115.807 110.534 118.12 112.708C120.433 114.864 122.888 116.861 125.469 118.688C128.046 120.474 130.785 122.014 133.65 123.288L132.949 124.846C130.049 123.4 127.292 121.685 124.714 119.723C122.177 117.752 119.775 115.613 117.524 113.32C115.294 111.028 113.184 108.622 111.202 106.111C109.218 103.612 107.374 101.005 105.678 98.3027V98.3027Z" fill="black"/>
<path d="M28.6553 90.6006C30.3311 95.2974 31.6369 100.118 32.5606 105.019C33.506 109.922 34.145 114.88 34.4737 119.863C34.534 121.111 34.6318 122.357 34.6566 123.606L34.713 127.354C34.7335 128.603 34.6412 129.852 34.6105 131.101C34.5717 132.349 34.5297 133.597 34.3864 134.841C34.0024 139.818 33.1507 144.749 31.8425 149.566C31.9706 148.325 32.1145 147.091 32.2743 145.863L32.5023 144.02L32.6268 142.165L32.9156 138.469L33.056 134.766C33.1758 129.834 33.1409 124.896 32.7705 119.974C32.4635 115.05 31.9362 110.137 31.2516 105.239C30.8834 102.795 30.5172 100.347 30.0767 97.9089C29.6815 95.4602 29.1689 93.0359 28.6553 90.6006Z" fill="black"/>
<path d="M25.1006 71.3054C31.7416 70.1324 38.4476 69.3267 45.1692 68.7268C51.8936 68.1515 58.6353 67.8142 65.3943 67.7149C72.1484 67.579 78.9081 67.827 85.6524 68.2536C92.3973 68.735 99.1116 69.5776 105.766 70.7778L105.187 71.0936C106.414 68.4555 107.83 65.9096 109.425 63.4759C110.224 62.2599 111.102 61.0981 112.055 59.9984C112.97 58.8572 114.156 57.9633 115.505 57.3984C114.233 58.0709 113.139 59.037 112.315 60.2166C111.446 61.3565 110.654 62.5527 109.944 63.7973C108.536 66.2949 107.276 68.8726 106.169 71.5174L106.017 71.8815L105.589 71.8333C102.249 71.4566 98.9387 70.9024 95.5861 70.6638C93.9137 70.5185 92.2482 70.3119 90.5729 70.2045L85.5475 69.8816C83.8752 69.7407 82.194 69.7218 80.5179 69.636C78.8404 69.5685 77.164 69.4798 75.4842 69.4714L70.4477 69.366L65.4087 69.3655C58.69 69.401 51.9703 69.5831 45.2498 69.9117C38.531 70.2419 31.813 70.6802 25.1006 71.3054Z" fill="black"/>
<path d="M148.669 96.7345C146.944 94.4718 145.025 92.3653 143.123 90.2496C141.216 88.1363 139.287 86.0438 137.334 83.9722C133.466 79.7948 129.513 75.6936 125.597 71.5633L125.536 71.499L125.506 71.405C124.717 68.6422 123.649 65.9672 122.316 63.4215C121.702 62.1174 120.863 60.9419 120.123 59.7064C119.265 58.5506 118.462 57.3494 117.501 56.2707C115.642 54.0579 113.566 52.0377 111.303 50.2404C109.043 48.4431 106.598 46.8914 104.009 45.6116L103.948 45.5816L103.921 45.5256C103.27 44.1733 102.691 42.7871 102.187 41.3731C101.931 40.6642 101.711 39.9429 101.528 39.2119C101.329 38.472 101.213 37.7125 101.182 36.9472L101.211 37.065C100.831 36.3961 100.415 35.7356 99.9724 35.1052C99.5574 34.4769 99.0575 33.909 98.4869 33.4177C98.3665 33.3186 98.228 33.2438 98.0791 33.1975C98.0506 33.1939 98.0225 33.1882 97.9948 33.1805C97.9877 33.1723 97.8474 33.1679 97.7817 33.1494C97.6186 33.0995 97.4779 32.9946 97.3834 32.8526C97.164 32.4231 97.1223 31.9244 97.2676 31.4644C97.3611 31.0307 97.5534 30.6243 97.8295 30.277C98.1057 29.9297 98.4582 29.6508 98.8597 29.4619C99.2742 29.3089 99.7168 29.2469 100.157 29.2804C100.598 29.3138 101.026 29.4419 101.413 29.6558C102.136 30.0273 102.815 30.4777 103.439 30.9986C104.684 32.0014 105.738 33.2295 106.823 34.2789C106.951 34.3996 107.087 34.5119 107.23 34.6151C107.298 34.6595 107.37 34.6982 107.444 34.7307C107.361 34.7799 107.453 34.7338 107.487 34.5707C107.531 34.4065 107.56 34.2386 107.573 34.0692C107.649 33.3269 107.655 32.5366 107.674 31.7638C107.697 30.2075 107.683 28.6449 107.663 27.083C107.624 23.9589 107.57 20.8304 107.484 17.7063L107.478 17.5103L107.608 17.3866C108.001 17.0044 108.467 16.7053 108.979 16.5073C109.524 16.2877 110.129 16.2682 110.687 16.4525C111.214 16.661 111.675 17.0082 112.021 17.4574C112.175 17.6721 112.322 17.8923 112.458 18.1146L112.8 18.8029L112.383 18.5456C112.947 18.5409 113.508 18.6316 114.043 18.8141C114.568 18.9871 115.064 19.2398 115.512 19.5633C115.96 19.8832 116.358 20.2674 116.693 20.7035C117.023 21.133 117.304 21.5988 117.529 22.0919L117.152 21.8745C117.817 21.8522 118.477 21.9858 119.08 22.2645C119.674 22.5364 120.201 22.9345 120.626 23.431C121.028 23.9272 121.346 24.4866 121.566 25.0866C121.676 25.3812 121.747 25.6861 121.838 25.985L122.002 26.9003L121.76 26.6448C122.534 26.9403 123.221 27.4281 123.755 28.0623C124.289 28.6965 124.653 29.4562 124.812 30.2698C125.14 31.8046 125.284 33.3733 125.239 34.9423C125.238 38.0493 124.996 41.1409 124.686 44.2215L124.601 44.2139C124.804 41.1279 124.889 38.0312 124.823 34.9484C124.836 33.4212 124.667 31.8978 124.32 30.4105C124.125 29.6953 123.791 29.0254 123.338 28.4387C122.913 27.8718 122.321 27.4526 121.645 27.2402L121.442 27.1868L121.402 26.9845L121.231 26.1327C121.141 25.8607 121.07 25.5805 120.965 25.3161C120.761 24.7926 120.473 24.3061 120.111 23.8759C119.746 23.4658 119.295 23.14 118.791 22.921C118.297 22.7056 117.761 22.6045 117.222 22.6253L116.964 22.6395L116.845 22.4078C116.636 21.9754 116.379 21.5679 116.078 21.1932C115.783 20.8236 115.435 20.4999 115.044 20.2327C114.657 19.9651 114.232 19.7589 113.782 19.6212C113.345 19.4792 112.889 19.4055 112.43 19.4026L112.144 19.4069L112.013 19.1452L111.709 18.5396C111.593 18.3526 111.47 18.1705 111.345 17.9939C111.1 17.6765 110.777 17.4285 110.407 17.2745C110.038 17.1562 109.64 17.1744 109.284 17.3259C108.895 17.481 108.54 17.7095 108.237 17.9989L108.361 17.6797C108.453 20.8114 108.538 23.9405 108.56 27.0747C108.566 28.6421 108.566 30.209 108.528 31.7814C108.501 32.5719 108.491 33.3488 108.401 34.1632C108.381 34.3836 108.34 34.6016 108.279 34.8143C108.239 34.9456 108.183 35.0712 108.111 35.1877C108.001 35.3597 107.829 35.4829 107.631 35.532C107.478 35.5545 107.321 35.5443 107.172 35.5021C107.022 35.46 106.884 35.3867 106.765 35.2872C106.591 35.1605 106.426 35.0224 106.27 34.8737C105.119 33.7371 104.138 32.5671 102.949 31.592C102.38 31.0986 101.759 30.6681 101.097 30.3079C100.803 30.1314 100.474 30.0203 100.134 29.9823C99.7927 29.9443 99.4477 29.9802 99.1219 30.0875C98.812 30.2309 98.539 30.4434 98.3239 30.7086C98.1088 30.9738 97.9573 31.2848 97.881 31.6177C97.7809 31.9085 97.7839 32.225 97.8897 32.5139C97.9707 32.5904 97.8425 32.5451 98.2261 32.618C98.4513 32.6865 98.6604 32.7996 98.841 32.9505C99.4508 33.4888 99.9813 34.1108 100.417 34.798C100.86 35.4573 101.266 36.1304 101.645 36.8292L101.676 36.8847L101.675 36.9472C101.692 37.6755 101.79 38.3995 101.97 39.1054C102.14 39.8251 102.347 40.5358 102.588 41.2348C103.067 42.6409 103.621 44.0205 104.247 45.3677L104.16 45.282C106.748 46.6167 109.196 48.2078 111.468 50.0314C113.758 51.8254 115.874 53.8317 117.788 56.0235C118.785 57.087 119.629 58.277 120.527 59.4255C121.362 60.6218 122.135 61.8596 122.845 63.134C124.278 65.6859 125.41 68.3952 126.22 71.2077L126.13 71.0498C130.101 75.1392 133.953 79.3384 137.798 83.5465C139.697 85.6711 141.578 87.8125 143.441 89.9707C145.276 92.1515 147.098 94.3499 148.739 96.6851L148.669 96.7345Z" fill="black"/>
<path d="M115.999 111.186C115.911 114.005 115.804 116.816 115.818 119.628C115.795 122.437 115.839 125.244 115.987 128.032C116.104 130.804 116.455 133.56 117.034 136.273C117.628 138.982 118.4 141.699 119.038 144.463C119.661 147.232 120.161 150.036 120.516 152.852C120.867 155.67 121.077 158.497 121.196 161.324C121.399 166.969 121.273 172.622 120.817 178.253C120.581 172.616 120.317 166.996 119.866 161.408C119.434 155.834 118.601 150.298 117.375 144.843C116.779 142.113 116.014 139.407 115.456 136.603C114.92 133.793 114.653 130.937 114.66 128.076C114.647 122.419 115.095 116.77 115.999 111.186V111.186Z" fill="black"/>
<path d="M29.9834 174.278C34.2665 176.015 38.711 177.325 43.252 178.187C44.3849 178.402 45.5073 178.662 46.6433 178.852L50.0635 179.351C52.3333 179.744 54.6415 179.857 56.9286 180.1C66.116 180.758 75.3453 180.539 84.491 179.444L91.3376 178.526C93.6154 178.191 95.8604 177.654 98.1267 177.242C102.684 176.506 107.101 175.155 111.589 174.079C113.847 173.583 116.01 172.761 118.222 172.103L124.839 170.037C129.196 168.498 133.5 166.802 137.875 165.26C135.766 166.211 133.647 167.147 131.519 168.069C129.389 168.983 127.277 169.953 125.127 170.823L118.57 173.167L115.285 174.326C114.197 174.737 113.078 175.051 111.958 175.36C107.481 176.598 103.034 177.988 98.4527 178.826L95.0346 179.53C93.8908 179.741 92.764 180.048 91.6052 180.173L84.6887 181.139C75.4316 182.24 66.0825 182.335 56.805 181.422L53.3382 180.996C52.7614 180.92 52.1816 180.868 51.6076 180.77L49.8901 180.452L46.4589 179.81C45.321 179.57 44.1945 179.271 43.0646 178.998C38.5443 177.909 34.1575 176.326 29.9834 174.278V174.278Z" fill="black"/>
<path d="M52.9295 365.684C53.2539 366.479 53.4786 367.312 53.5984 368.163C53.7217 368.984 53.7834 369.813 53.783 370.643C53.7853 371.473 53.7243 372.302 53.6008 373.122C53.4816 373.974 53.2561 374.807 52.9295 375.602C52.6028 374.807 52.3773 373.974 52.258 373.122C52.1345 372.302 52.0736 371.473 52.0757 370.643C52.0755 369.813 52.1372 368.984 52.2604 368.163C52.3801 367.312 52.6049 366.479 52.9295 365.684V365.684Z" fill="black"/>
<path d="M76.7281 365.684C77.054 366.57 77.2785 367.491 77.3972 368.429C77.5205 369.339 77.5821 370.256 77.5816 371.174C77.5839 372.092 77.5231 373.009 77.3994 373.919C77.2813 374.857 77.0561 375.778 76.7281 376.664C76.4001 375.778 76.1748 374.857 76.0566 373.919C75.933 373.009 75.8722 372.092 75.8746 371.174C75.8741 370.256 75.9357 369.339 76.059 368.429C76.1777 367.491 76.4022 366.57 76.7281 365.684V365.684Z" fill="black"/>
<path d="M101.929 366.649C102.421 367.344 102.842 368.086 103.186 368.865C103.526 369.616 103.816 370.373 104.075 371.134C104.336 371.894 104.561 372.659 104.782 373.419C104.894 373.798 104.992 374.182 105.124 374.549C105.22 374.939 105.41 375.301 105.678 375.601C105.203 375.578 104.756 375.371 104.432 375.022C104.106 374.714 103.817 374.37 103.569 373.996C103.101 373.276 102.728 372.499 102.459 371.684C102.189 370.885 102 370.062 101.897 369.225C101.781 368.37 101.792 367.502 101.929 366.649Z" fill="black"/>
<path d="M68.5878 385.694C68.7223 384.136 69.133 382.614 69.8006 381.199C68.9177 382.332 64.1107 380.539 61.5866 378.523C58.9289 376.4 54.6836 375.598 54.6836 375.598C51.0004 375.482 49.2789 380.111 48.512 385.248C50.0085 384.257 51.7277 383.653 53.5152 383.491C54.422 383.416 55.335 383.47 56.2265 383.652C57.1215 383.848 57.9816 384.179 58.7773 384.633C59.5045 385.092 60.2612 385.504 61.0425 385.864C61.8282 386.175 62.6539 386.373 63.4951 386.452C64.3489 386.516 65.2073 386.441 66.037 386.229C66.8869 386.033 67.6999 385.702 68.445 385.248C67.0548 386.415 65.2923 387.045 63.4775 387.023C62.5608 387.002 61.6539 386.83 60.793 386.515C59.9695 386.161 59.1736 385.747 58.4115 385.275C56.9321 384.426 55.2468 384.003 53.542 384.053C51.8034 384.119 50.0945 384.525 48.512 385.248C48.1065 388.183 47.9098 391.142 47.9233 394.105C49.4662 394.355 51.0003 394.613 52.5343 394.845C54.0683 395.068 55.6023 395.291 57.1362 395.443C58.6791 395.612 60.2131 395.728 61.756 395.746C62.1424 395.765 62.5295 395.763 62.9155 395.737C63.2992 395.719 63.6915 395.728 64.066 395.675C64.4495 395.639 64.8421 395.612 65.2255 395.559C65.6 395.479 65.9835 395.407 66.3671 395.345C64.9048 395.935 63.3501 396.264 61.7739 396.317C60.2031 396.408 58.6273 396.36 57.0648 396.174C55.5047 396.01 53.9559 395.751 52.4272 395.398C50.8991 395.067 49.3945 394.635 47.9233 394.105C47.9146 396.807 48.0483 398.707 48.0483 398.707C54.3979 401.879 61.7336 402.452 68.4986 400.304C68.3202 398.681 68.222 397.066 68.1687 395.434C68.1062 393.811 68.1241 392.187 68.1774 390.564C68.2248 388.934 68.3618 387.309 68.5878 385.694ZM130.822 381.538C128.869 380.824 119.308 382.064 115.598 374.447C111.879 366.839 106.001 374.804 103.807 377.64C101.605 380.467 96.1016 391.509 82.4829 378.88C82.4829 378.88 72.5655 372.859 69.9078 381.003C69.8899 381.038 69.881 381.065 69.8631 381.101C69.6011 381.825 69.4361 382.581 69.3725 383.348C69.3636 383.464 69.3457 383.589 69.3368 383.705C72.0186 382.81 74.8796 382.59 77.6669 383.063C79.1039 383.32 80.4803 383.843 81.7249 384.606C82.9734 385.373 84.0704 386.212 85.3191 386.871C86.5108 387.585 87.7952 388.131 89.1361 388.495C90.4724 388.839 91.8632 388.918 93.2298 388.727C93.9193 388.633 94.5997 388.481 95.2632 388.272C95.9243 388.037 96.5705 387.763 97.1985 387.451C98.4672 386.823 99.6787 386.086 100.819 385.248C98.7381 387.259 96.1429 388.657 93.319 389.289C91.8774 389.549 90.3969 389.5 88.9756 389.146C87.5656 388.791 86.2119 388.242 84.9533 387.514C83.6958 386.818 82.5363 385.917 81.3769 385.177C80.196 384.45 78.9034 383.923 77.551 383.616C76.1845 383.313 74.7846 383.187 73.3859 383.241C72.0233 383.264 70.6665 383.425 69.3367 383.723C69.2566 384.401 69.1852 385.07 69.1495 385.748C69.0426 387.362 68.9623 388.976 68.9087 390.591L68.7393 395.443C68.6679 397.057 68.6232 398.681 68.4985 400.304C73.0418 403.401 78.2796 405.329 83.7468 405.915C89.214 406.502 94.7415 405.729 99.8384 403.666C99.8384 403.666 111.165 400.482 122.144 401.365C133.123 402.248 152.423 397.12 153.662 389.503C150.604 391.336 147.411 392.935 144.11 394.283C140.792 395.622 137.351 396.631 133.836 397.298C132.077 397.644 130.294 397.862 128.503 397.949C127.603 397.998 126.7 397.989 125.801 397.922C124.918 397.887 124.035 397.869 123.143 397.851C119.593 397.824 116.05 397.955 112.512 398.243C108.971 398.511 105.44 398.93 101.943 399.519L99.3213 399.992L96.7169 400.536C94.9667 400.923 93.1946 401.203 91.4103 401.374C87.836 401.73 84.2273 401.483 80.7348 400.643C77.2468 399.816 73.9771 398.25 71.1473 396.049C74.0282 398.141 77.3254 399.589 80.8152 400.295C84.2756 401.055 87.8388 401.23 91.357 400.812C94.862 400.455 98.2955 399.421 101.827 398.85C105.35 398.243 108.891 397.794 112.449 397.503C116.008 397.236 119.584 397.128 123.152 397.182C124.044 397.2 124.935 397.227 125.836 397.271C126.715 397.335 127.596 397.35 128.476 397.316C130.241 397.234 131.998 397.04 133.738 396.736C137.234 396.141 140.663 395.206 143.977 393.945C147.315 392.717 150.553 391.232 153.662 389.503C154.902 381.886 132.766 382.242 130.822 381.538V381.538ZM103.567 396.112C101.399 397.824 98.706 398.02 97.5554 396.567C96.4049 395.104 97.2343 392.535 99.4103 390.823C101.578 389.119 104.271 388.914 105.422 390.377C106.572 391.83 105.743 394.399 103.567 396.112V396.112ZM138.287 387.478C137.939 388.201 137.573 388.905 137.181 389.601L137.127 389.699L137.002 389.69L130.84 389.333L124.686 388.887L118.532 388.37C116.481 388.2 114.438 387.995 112.387 387.781L112.119 387.755L112.182 387.505C112.69 385.328 113.252 383.161 113.823 381.003C113.466 383.116 113.092 385.23 112.681 387.335C114.652 387.451 116.623 387.558 118.585 387.71L124.739 388.165L130.893 388.7L136.922 389.306C137.332 388.673 137.734 388.031 138.108 387.389C138.304 387.041 138.501 386.693 138.679 386.345C138.874 385.998 139.029 385.63 139.143 385.248C138.958 386.026 138.67 386.776 138.287 387.478V387.478Z" fill="black"/>
<path d="M69.9078 381.003C69.89 381.039 69.881 381.065 69.8631 381.101C69.8541 381.135 69.8355 381.166 69.8096 381.19C69.8388 381.126 69.8716 381.063 69.9078 381.003Z" fill="white"/>
<path d="M74.5039 39.4062C74.5039 39.4062 69.0258 11.0941 78.4102 3.30282C87.7945 -4.48846 106.917 3.30282 111.875 8.26091C111.875 8.26091 118.072 12.6878 110.281 16.5834C102.491 20.4791 99.8348 19.7031 99.8348 19.7031C99.8348 19.7031 96.6476 19.4166 96.1164 24.1976C96.1164 24.1976 86.7813 34.3871 86.7567 39.9168L74.5039 39.4062Z" fill="black"/>
<path d="M96.5407 24.2452C96.3648 25.2112 96.3271 26.1973 96.4285 27.174C96.4722 27.6524 96.6411 28.111 96.918 28.5036C97.0806 28.685 97.2907 28.8173 97.5245 28.8856C97.7583 28.9538 98.0066 28.9553 98.2412 28.8899C97.9975 28.9917 97.7303 29.0234 97.4695 28.9815C97.2088 28.9396 96.9649 28.8257 96.7654 28.6528C96.3954 28.2645 96.1351 27.7849 96.0111 27.2631C95.8738 26.758 95.7836 26.2413 95.7416 25.7196C95.693 25.1977 95.6765 24.6733 95.6924 24.1494L96.5407 24.2452Z" fill="black"/>
<path d="M99.8347 19.7031C100.586 21.4708 101.187 23.2982 101.633 25.1663C102.116 27.0253 102.44 28.9219 102.603 30.8358C101.85 29.0688 101.249 27.2411 100.805 25.3723C100.324 23.513 99.999 21.6167 99.8347 19.7031V19.7031Z" fill="black"/>
<path d="M112.775 18.9531L113.114 31.3687L112.038 18.995L112.775 18.9531Z" fill="black"/>
<path d="M117.555 22.2334L117.541 30.3062L116.818 22.266L117.555 22.2334Z" fill="black"/>
<path d="M122.071 26.9424L121.702 30.8354L121.333 26.9424H122.071Z" fill="black"/>
</svg>
