<svg width="79" height="41" viewBox="0 0 79 41" fill="none" xmlns="http://www.w3.org/2000/svg">
<path d="M30.8528 4.97088H28.5445C28.5137 4.7339 28.4507 4.52 28.3552 4.32919C28.2598 4.13838 28.1337 3.97526 27.9767 3.83984C27.8197 3.70443 27.6335 3.60133 27.4181 3.53054C27.2057 3.45668 26.9703 3.41974 26.7118 3.41974C26.2532 3.41974 25.8577 3.53208 25.5253 3.75675C25.196 3.98142 24.9421 4.30611 24.7636 4.73082C24.5882 5.15554 24.5005 5.66951 24.5005 6.27273C24.5005 6.90057 24.5897 7.42685 24.7682 7.85156C24.9498 8.2732 25.2037 8.59174 25.53 8.80717C25.8593 9.01953 26.2486 9.12571 26.6979 9.12571C26.9503 9.12571 27.1796 9.09339 27.3858 9.02876C27.5951 8.96413 27.7782 8.87027 27.9351 8.74716C28.0952 8.62098 28.226 8.46863 28.3275 8.29013C28.4322 8.10855 28.5045 7.90388 28.5445 7.67614L30.8528 7.68999C30.8128 8.10855 30.6912 8.52095 30.4881 8.9272C30.288 9.33345 30.0126 9.70431 29.6617 10.0398C29.3109 10.3722 28.8831 10.6368 28.3783 10.8338C27.8767 11.0308 27.3012 11.1293 26.6518 11.1293C25.7962 11.1293 25.0298 10.9415 24.3528 10.5661C23.6788 10.1875 23.1463 9.6366 22.7555 8.91335C22.3646 8.1901 22.1692 7.3099 22.1692 6.27273C22.1692 5.23248 22.3677 4.35073 22.7647 3.62749C23.1617 2.90424 23.6988 2.35488 24.3758 1.9794C25.0529 1.60393 25.8116 1.41619 26.6518 1.41619C27.2242 1.41619 27.7536 1.49621 28.2398 1.65625C28.7261 1.81321 29.1539 2.04403 29.5232 2.34872C29.8925 2.65033 30.1926 3.02119 30.4234 3.46129C30.6543 3.9014 30.7974 4.40459 30.8528 4.97088ZM28.2191 13.5455H30.4996V19.6438C30.4996 20.3486 30.3319 20.9626 29.9964 21.4858C29.6609 22.0059 29.1931 22.4091 28.593 22.6953C27.9929 22.9785 27.2958 23.12 26.5017 23.12C25.6985 23.12 24.9968 22.9785 24.3966 22.6953C23.7965 22.4091 23.3302 22.0059 22.9978 21.4858C22.6654 20.9626 22.4992 20.3486 22.4992 19.6438V13.5455H24.7844V19.4453C24.7844 19.7715 24.8552 20.0624 24.9968 20.3178C25.1414 20.5733 25.343 20.7733 25.6015 20.918C25.86 21.0626 26.1601 21.1349 26.5017 21.1349C26.8434 21.1349 27.1419 21.0626 27.3973 20.918C27.6559 20.7733 27.8574 20.5733 28.0021 20.3178C28.1467 20.0624 28.2191 19.7715 28.2191 19.4453V13.5455ZM22.9118 35V25.5455H26.8174C27.5252 25.5455 28.1362 25.6732 28.6501 25.9286C29.1672 26.181 29.5657 26.5442 29.8458 27.0181C30.1259 27.489 30.2659 28.0476 30.2659 28.6939C30.2659 29.3494 30.1228 29.9065 29.8366 30.3651C29.5503 30.8205 29.1441 31.1683 28.6178 31.4084C28.0915 31.6454 27.4683 31.7638 26.7481 31.7638H24.2783V29.9634H26.3234C26.6681 29.9634 26.9559 29.9188 27.1867 29.8295C27.4206 29.7372 27.5976 29.5987 27.7176 29.4141C27.8376 29.2263 27.8976 28.9863 27.8976 28.6939C27.8976 28.4015 27.8376 28.1599 27.7176 27.9691C27.5976 27.7752 27.4206 27.6306 27.1867 27.5352C26.9528 27.4367 26.665 27.3874 26.3234 27.3874H25.197V35H22.9118ZM28.2346 30.679L30.589 35H28.0961L25.7879 30.679H28.2346Z" fill="black"/>
<path d="M37.9118 11V1.54545H41.8174C42.5252 1.54545 43.1362 1.67318 43.6501 1.92862C44.1672 2.18099 44.5657 2.54415 44.8458 3.01811C45.1259 3.48899 45.2659 4.04758 45.2659 4.69389C45.2659 5.34943 45.1228 5.90649 44.8366 6.36506C44.5503 6.82055 44.1441 7.16832 43.6178 7.40838C43.0915 7.64536 42.4683 7.76385 41.7481 7.76385H39.2783V5.96342H41.3234C41.6681 5.96342 41.9559 5.9188 42.1867 5.82955C42.4206 5.73722 42.5976 5.59872 42.7176 5.41406C42.8376 5.22633 42.8976 4.98627 42.8976 4.69389C42.8976 4.40151 42.8376 4.15992 42.7176 3.96911C42.5976 3.77521 42.4206 3.63056 42.1867 3.53516C41.9528 3.43667 41.665 3.38743 41.3234 3.38743H40.197V11H37.9118ZM43.2346 6.67898L45.589 11H43.0961L40.7879 6.67898H43.2346ZM37.5073 15.4013V13.5455H45.4984V15.4013H42.6316V23H40.3788V15.4013H37.5073ZM42.6408 25.5455V35H40.3557V25.5455H42.6408Z" fill="black"/>
<path d="M53.2038 11V1.54545H59.7962V3.40128H55.489V5.3402H59.4592V7.20064H55.489V9.14418H59.7962V11H53.2038ZM52.3532 23V13.5455H54.6384V17.3402H58.3639V13.5455H60.6444V23H58.3639V19.2006H54.6384V23H52.3532ZM52.5073 27.4013V25.5455H60.4984V27.4013H57.6316V35H55.3788V27.4013H52.5073Z" fill="black"/>
<path d="M69.246 11H66.79L69.98 1.54545H73.0223L76.2123 11H73.7563L71.5358 3.92756H71.4619L69.246 11ZM68.9182 7.27912H74.0518V9.01491H68.9182V7.27912ZM76.0103 18.2727C76.0103 19.313 75.8103 20.1947 75.4102 20.918C75.0101 21.6412 74.4684 22.1906 73.7852 22.5661C73.105 22.9415 72.3417 23.1293 71.4954 23.1293C70.646 23.1293 69.8812 22.94 69.201 22.5614C68.5208 22.1829 67.9807 21.6335 67.5806 20.9134C67.1836 20.1901 66.9851 19.3099 66.9851 18.2727C66.9851 17.2325 67.1836 16.3507 67.5806 15.6275C67.9807 14.9042 68.5208 14.3549 69.201 13.9794C69.8812 13.6039 70.646 13.4162 71.4954 13.4162C72.3417 13.4162 73.105 13.6039 73.7852 13.9794C74.4684 14.3549 75.0101 14.9042 75.4102 15.6275C75.8103 16.3507 76.0103 17.2325 76.0103 18.2727ZM73.6744 18.2727C73.6744 17.6572 73.5866 17.1371 73.4112 16.7124C73.2389 16.2876 72.9896 15.966 72.6634 15.7475C72.3402 15.529 71.9509 15.4197 71.4954 15.4197C71.043 15.4197 70.6536 15.529 70.3274 15.7475C70.0012 15.966 69.7504 16.2876 69.5749 16.7124C69.4026 17.1371 69.3164 17.6572 69.3164 18.2727C69.3164 18.8883 69.4026 19.4084 69.5749 19.8331C69.7504 20.2578 70.0012 20.5794 70.3274 20.7979C70.6536 21.0165 71.043 21.1257 71.4954 21.1257C71.9509 21.1257 72.3402 21.0165 72.6634 20.7979C72.9896 20.5794 73.2389 20.2578 73.4112 19.8331C73.5866 19.4084 73.6744 18.8883 73.6744 18.2727ZM66.9078 25.5455H69.4607L71.4596 29.5018H71.5427L73.5416 25.5455H76.0945L72.6368 31.8423V35H70.3655V31.8423L66.9078 25.5455Z" fill="black"/>
<path d="M6.16032 3.01293C5.61517 2.92439 5.10147 3.29454 5.01293 3.83968C4.92439 4.38483 5.29454 4.89853 5.83968 4.98707L6.16032 3.01293ZM0.666667 30C0.666667 32.9455 3.05448 35.3333 6 35.3333C8.94552 35.3333 11.3333 32.9455 11.3333 30C11.3333 27.0545 8.94552 24.6667 6 24.6667C3.05448 24.6667 0.666667 27.0545 0.666667 30ZM5.83968 4.98707C9.47404 5.57734 13.5961 9.07998 14.7104 13.6895C15.2583 15.9561 15.0804 18.5001 13.7299 21.1216C12.3729 23.7555 9.80301 26.5211 5.48102 29.1452L6.51898 30.8548C11.0644 28.095 13.9388 25.0829 15.5078 22.0375C17.0831 18.9797 17.3127 15.9429 16.6544 13.2196C15.3562 7.84931 10.6109 3.73579 6.16032 3.01293L5.83968 4.98707Z" fill="#FB6C6C"/>
</svg>
